# xmcd
#
# Track frame offsets:
#	150
#	8193
#	29055
#	50140
#	73165
#	94407
#	114544
#	131401
#	151720
#	173448
#	195058
#	217227
#	234753
#	256416
#	278305
#
# Disc length: 3979 seconds
#
# Revision: 0
# Processed by: cddbd v1.5.1PL2 Copyright (c) Steve Scherf et al.
# Submitted via: dBpowerAMP V4.0
#
DISCID=c60f890f
DTITLE=Omar - Sing (If You Want It)
DYEAR=2006
DGENRE=
TTITLE0=Lift Off
TTITLE1=Sing (If You Want It)
TTITLE2=Be A Man [Feat. Jc Bentley]
TTITLE3=Kiss It Right
TTITLE4=Get It Together
TTITLE5=Your Mess
TTITLE6=All For Me [Feat. Angie Stone]
TTITLE7=It's So....
TTITLE8=Gimme SUM (RAP Version) [Feat. Common, Rodney P, Cantibe and Ashman]
TTITLE9=Feeling You [Feat. Stevie Wonder]
TTITLE10=Lay It Down [Feat. Estelle]
TTITLE11=I Want It
TTITLE12=Stylin' [Feat. Angie Stone]
TTITLE13=Ghana Emotion
TTITLE14=Gimme SUM (Vocal Version) [Feat. Common, Rodney P, Cantibe and Ashman]
EXTD=
EXTT0=
EXTT1=
EXTT2=
EXTT3=
EXTT4=
EXTT5=
EXTT6=
EXTT7=
EXTT8=
EXTT9=
EXTT10=
EXTT11=
EXTT12=
EXTT13=
EXTT14=
PLAYORDER=
